<?xml version="1.0" encoding="utf-8"?>
<!-- Generator: Adobe Illustrator 24.3.0, SVG Export Plug-In . SVG Version: 6.00 Build 0)  -->
<svg version="1.1" id="Design" xmlns="http://www.w3.org/2000/svg" xmlns:xlink="http://www.w3.org/1999/xlink" x="0px" y="0px"
	 viewBox="0 0 1280 720" style="enable-background:new 0 0 1280 720;" xml:space="preserve">
<style type="text/css">
	.st0{opacity:3.000000e-02;fill:none;stroke:#FFFFFF;stroke-miterlimit:10;}
</style>
<path class="st0" d="M850.1-183.2H508c-28.8,0-55.5,15.4-69.9,40.4L267,153.5c-14.4,25-14.4,55.7,0,80.7l171,296.3
	c14.4,25,41.1,40.4,69.9,40.4H850c28.8,0,55.5-15.4,69.9-40.4L1091,234.2c14.4-25,14.4-55.7,0-80.7L920-142.8
	C905.6-167.8,878.9-183.2,850.1-183.2z"/>
<path class="st0" d="M1016.8-113.4H674.7c-28.8,0-55.5,15.4-69.9,40.4L433.7,223.2c-14.4,25-14.4,55.7,0,80.7l171.1,296.3
	c14.4,25,41.1,40.4,69.9,40.4h342.1c28.8,0,55.5-15.4,69.9-40.4l171.1-296.3c14.4-25,14.4-55.7,0-80.7L1086.7-73.1
	C1072.3-98,1045.7-113.4,1016.8-113.4z"/>
<path class="st0" d="M605.3,46.2H263.2c-28.8,0-55.5,15.4-69.9,40.4L22.2,382.8c-14.4,25-14.4,55.7,0,80.7l171.1,296.3
	c14.4,25,41.1,40.4,69.9,40.4h342.1c28.8,0,55.5-15.4,69.9-40.4l171.1-296.3c14.4-25,14.4-55.7,0-80.7L675.2,86.6
	C660.8,61.6,634.1,46.2,605.3,46.2z"/>
</svg>
