<?xml version="1.0" encoding="utf-8"?>
<!-- Generator: Adobe Illustrator 24.3.0, SVG Export Plug-In . SVG Version: 6.00 Build 0)  -->
<svg version="1.1"  xmlns="http://www.w3.org/2000/svg" xmlns:xlink="http://www.w3.org/1999/xlink" x="0px" y="0px"
	 viewBox="0 0 27.31 27.31" style="enable-background:new 0 0 27.31 27.31;" xml:space="preserve">
<style type="text/css">
	.st0{fill:#2B2B33;enable-background:new    ;}
	.st1{fill:#FFFFFF;}
</style>
<path class="st0" d="M6.83,0h13.65c3.75,0,6.83,3.07,6.83,6.83v13.65c0,3.75-3.07,6.83-6.83,6.83H6.83C3.07,27.31,0,24.23,0,20.48
	V6.83C0,3.07,3.07,0,6.83,0z"/>
<g>
	<path class="st1" d="M13.99,20.72c-0.06,0-0.12-0.01-0.18-0.03c-0.19-0.07-0.32-0.26-0.32-0.47V17.2c0-0.2-0.1-0.37-0.27-0.45
		l-4.67-2.33c-0.29-0.15-0.48-0.41-0.54-0.71c-0.06-0.3,0.03-0.61,0.23-0.84l5.38-6.09c0.14-0.16,0.36-0.21,0.55-0.14
		c0.19,0.07,0.32,0.26,0.32,0.47v3.03c0,0.19,0.11,0.36,0.27,0.44l4.71,2.36c0.28,0.14,0.48,0.4,0.54,0.71
		c0.06,0.31-0.03,0.63-0.25,0.86l-5.41,6.04C14.27,20.66,14.13,20.72,13.99,20.72z M13.5,8.42l-4.51,5.1l4.67,2.33
		c0.51,0.25,0.83,0.77,0.83,1.35v1.71l4.54-5.07l0.01-0.01l-4.71-2.36c-0.5-0.25-0.83-0.78-0.83-1.34
		C13.5,10.13,13.5,8.42,13.5,8.42z"/>
</g>
</svg>
