<?xml version="1.0" encoding="utf-8"?>
<!-- Generator: Adobe Illustrator 24.3.0, SVG Export Plug-In . SVG Version: 6.00 Build 0)  -->
<svg version="1.1"  xmlns="http://www.w3.org/2000/svg" xmlns:xlink="http://www.w3.org/1999/xlink" x="0px" y="0px"
	 viewBox="0 0 27.31 27.31" style="enable-background:new 0 0 27.31 27.31;" xml:space="preserve">
<style type="text/css">
	.st0{fill:#2B2B33;enable-background:new    ;}
	.st1{fill:#FFFFFF;}
</style>
<path class="st0" d="M6.83,0h13.65c3.75,0,6.83,3.07,6.83,6.83v13.65c0,3.75-3.07,6.83-6.83,6.83H6.83C3.07,27.31,0,24.24,0,20.48
	V6.83C0,3.08,3.07,0,6.83,0z"/>
<path class="st1" d="M19.9,7.11c0-0.17-0.08-0.32-0.22-0.42c-0.14-0.09-0.32-0.11-0.47-0.05l-8.73,3.64
	c-0.19,0.08-0.31,0.26-0.31,0.46v5.18c-0.46-0.38-1.05-0.61-1.69-0.61C7,15.31,5.79,16.52,5.79,18S7,20.7,8.48,20.7
	s2.69-1.21,2.69-2.69c0-0.03-0.01-0.07-0.01-0.1c0-0.02,0.01-0.03,0.01-0.05v-6.78l7.73-3.22v5.31c-0.46-0.38-1.05-0.61-1.69-0.61
	c-1.48,0-2.69,1.21-2.69,2.69s1.21,2.69,2.69,2.69s2.69-1.21,2.69-2.69c0-0.03-0.01-0.07-0.01-0.1c0-0.02,0.01-0.03,0.01-0.05V7.11z
	 M8.48,19.7c-0.93,0-1.69-0.76-1.69-1.69s0.76-1.69,1.69-1.69s1.69,0.76,1.69,1.69S9.41,19.7,8.48,19.7z M17.21,16.94
	c-0.93,0-1.69-0.76-1.69-1.69s0.76-1.69,1.69-1.69s1.69,0.76,1.69,1.69S18.14,16.94,17.21,16.94z"/>
</svg>
