<?xml version="1.0" encoding="UTF-8" standalone="no"?>
<svg version="1.2" xmlns="http://www.w3.org/2000/svg" viewBox="0 0 892 772" width="892" height="772">
	<title>wcm_logo</title>
	<style>
		.s0 { fill: #ffffff } 
	</style>
	<g id="wcm2">
		<path id="M" class="s0" aria-label="M"  d="m229.3 505.2h106.2l23.4 217.8h-77.7l-4.8-155.4-30 155.4h-78.6l-30.6-154.2-4.5 154.2h-77.7l23.4-217.8h102l26.1 141.9z"/>
		<path id="W" class="s0" aria-label="W"  d="m246.6 44.2l23.4 135.9 15.6-135.9h73.2l-40.2 217.8h-92.1l-20.4-121.5-23.7 121.5h-88.2l-40.2-217.8h73.2l15.3 134.1 24-134.1z"/>
		<path id="C" class="s0" aria-label="C"  d="m206 497q-67.8 0-99.9-28.8-32.1-28.8-32.1-82.2 0-53.7 32.1-84.9 32.1-31.2 99.9-31.2 94.8 0 126.9 65.1-27 9.3-63.3 27.9-8.7-16.8-27.6-24.9-18.6-8.1-38.1-8.1-28.8 0-42.9 15.3-14.1 15-14.1 37.2 0 24 15 39.3 15.3 15 46.5 15 24.9 0 39.6-8.1 14.7-8.4 21.6-26.4 24.6 13.2 63 29.7-15 36.3-50.1 50.7-35.1 14.4-76.5 14.4z"/>
		<path id="entrum" class="s0" aria-label="entrum"  d="m408.5 464.8q0 0.8-0.5 1.2-0.4 0.4-0.9 0.4h-32.9q0.5 6.7 4.2 11 3.7 4.2 10.1 4.2 3.3 0 7.5-0.8 4.2-0.9 7.7-3 0.7-0.4 0.9 0.1 0.2 0.5 0.2 1.3v6.9q0 0.9-0.3 1.4-0.3 0.5-1.2 1-3 1.6-7.1 2.3-4 0.7-8.2 0.7-12.4 0-18.8-7.4-6.3-7.5-6.3-21.9 0-5.4 1.4-10.6 1.4-5.2 4.2-9.3 2.9-4.1 7.3-6.6 4.4-2.5 10.4-2.5 6.1 0 10.3 2.3 4.3 2.3 7 6.2 2.7 3.9 3.9 9.1 1.2 5.2 1.2 11.1 0 0.7-0.1 1.6 0 0.9 0 1.3zm-21.9-22q-2.7 0-4.8 1.2-2.1 1.2-3.6 3.1-1.5 1.9-2.5 4.4-0.9 2.5-1.3 5h22.9q0-2-0.7-4.4-0.6-2.4-1.9-4.4-1.3-2.1-3.3-3.5-2-1.4-4.8-1.4zm77.2 47.1h-8.3q-0.5 0-0.9-0.4-0.3-0.5-0.3-1v-31.8q0-7.2-2.3-10.4-2.2-3.2-7-3.2-6.6 0-9.8 3.7-3.1 3.6-3.1 10.5v31.3q0 1.3-1.2 1.3h-8.3q-0.5 0-0.9-0.4-0.3-0.5-0.3-1v-39.8q0-3.8-0.1-7.3 0-3.5-0.2-5.5-0.2-1.3 1.4-1.3h7.9q1.1 0 0.9 0.8l-0.1 3.6q2.5-2.4 6-4.1 3.5-1.7 8.1-1.7 9.6 0 14.6 5.7 5.1 5.6 5.1 16.3v33.4q0 1.3-1.2 1.3zm44.9-0.8q-1.4 0.9-4.5 1.7-3 0.7-6.5 0.7-4.2 0-6.7-1.7-2.5-1.8-3.7-4.1-1.4-2.6-1.7-6.1-0.3-3.5-0.3-9.5v-25.1h-8.3q-0.5 0-0.9-0.3-0.3-0.4-0.3-0.9v-7.9q0-0.5 0.3-0.8 0.4-0.4 0.9-0.4h8.3v-14q0-0.5 0.4-0.8 0.4-0.4 0.9-0.4h8.1q0.6 0 0.9 0.4 0.4 0.3 0.4 0.8v14h9.6q0.5 0 0.8 0.4 0.4 0.3 0.4 0.8v7.9q0 0.5-0.4 0.9-0.3 0.3-0.8 0.3h-9.6v25.8q0 6.8 0.3 8.6 0.4 1.8 1.9 2.2 1.5 0.4 3.4 0.2 1.3-0.2 2.9-0.5 1.6-0.4 2.8-0.9 0.5-0.2 0.7 0 0.2 0.1 0.4 0.9l0.8 6.6q0.1 0.7-0.5 1.2zm35.7-44.4q-2-0.5-3.5-0.6-1.5-0.2-2.6 0-3 0.6-4.9 2.6-1.8 1.9-2.8 4.5-0.9 2.6-1.2 5.6-0.3 3-0.3 5.7v26q0 1.4-1.2 1.4h-8.3q-1.1 0-1.1-1.5v-40.3q0-3.2-0.1-6.4-0.1-3.2-0.1-5.6 0-0.9 0.3-1.1 0.3-0.3 1-0.3h8.3q0.7 0 0.8 0.2 0.1 0.2 0.1 0.7v4.4q0.7-1.2 1.8-2.4 1.2-1.2 2.5-2.1 1.4-1 2.8-1.5 1.4-0.6 2.6-0.6 1.9 0 3.4 0.1 1.6 0 3.3 1 0.5 0.2 0.6 0.7 0.1 0.4 0.1 0.8v7.5q0 0.4-0.3 0.9-0.3 0.5-1.2 0.3zm52.9 45.2h-8.1q-0.5 0-0.9-0.2-0.3-0.3-0.2-0.8v-4q-2.6 3.2-6.4 4.9-3.7 1.7-7.8 1.7-9.7 0-14.5-5.7-4.8-5.7-4.8-16.3v-33.5q0-0.5 0.3-0.9 0.4-0.5 0.9-0.5h8.2q0.5 0 0.9 0.5 0.4 0.5 0.4 1v31.8q0 7.5 2.4 10.6 2.5 3.1 7.3 3.1 5.4 0 8.9-4.1 3.6-4.1 3.6-12.2v-29.3q0-0.5 0.3-0.9 0.4-0.5 0.9-0.5h8.3q0.5 0 0.8 0.6 0.4 0.5 0.4 1v40.8q0 3.1 0.1 6.1 0.1 3 0.1 5.5 0 1.3-1.1 1.3zm90.7 0h-8.3q-0.5 0-0.9-0.4-0.4-0.5-0.4-1v-34.6q0-4.7-2.2-7.6-2.2-3-6.4-3-3 0-5.4 1.3-2.3 1.2-3.9 3.4-1.6 2.1-2.5 5.1-0.8 3-0.8 6.5v29q0 1.3-1.2 1.3h-8.3q-0.5 0-0.9-0.4-0.4-0.5-0.4-1v-34.6q0-10.6-8.8-10.6-5.6 0-8.8 3.4-3.1 3.4-3.1 9.4v32.5q0 1.3-1.2 1.3h-8.3q-0.5 0-0.9-0.4-0.3-0.5-0.3-1v-39.8q0-3.8-0.1-7.3-0.1-3.5-0.3-5.5-0.2-1.3 1.4-1.3h8.5q0.9 0 0.9 0.8l-0.1 3.5q2-2.3 5.5-3.9 3.5-1.6 7.4-1.6 5.2 0 9.5 2.4 4.3 2.4 6.2 7.1 2.3-4.8 6.8-7.1 4.5-2.4 9.6-2.4 8.5 0 13.7 5.1 5.2 5 5.2 14.1v36q0 0.5-0.4 0.9-0.3 0.4-0.8 0.4z"/>
		<path id="entoringu" class="s0" aria-label="entoringu"  d="m408.5 697.8q0 0.8-0.5 1.2-0.4 0.4-0.9 0.4h-32.9q0.5 6.7 4.2 11 3.7 4.2 10.1 4.2 3.3 0 7.5-0.8 4.2-0.9 7.7-3 0.7-0.4 0.9 0.1 0.2 0.5 0.2 1.3v6.9q0 0.9-0.3 1.4-0.3 0.5-1.2 1-3 1.6-7.1 2.3-4 0.7-8.2 0.7-12.4 0-18.8-7.4-6.3-7.5-6.3-21.9 0-5.4 1.4-10.6 1.4-5.2 4.2-9.3 2.9-4.1 7.3-6.6 4.4-2.5 10.4-2.5 6.1 0 10.3 2.3 4.3 2.3 7 6.2 2.7 3.9 3.9 9.1 1.2 5.2 1.2 11.1 0 0.7-0.1 1.6 0 0.9 0 1.3zm-21.9-22q-2.7 0-4.8 1.2-2.1 1.2-3.6 3.1-1.5 1.9-2.5 4.4-0.9 2.5-1.3 5h22.9q0-2-0.7-4.4-0.6-2.4-1.9-4.4-1.3-2.1-3.3-3.5-2-1.4-4.8-1.4zm77.2 47.1h-8.3q-0.5 0-0.9-0.4-0.3-0.5-0.3-1v-31.8q0-7.2-2.3-10.4-2.2-3.2-7-3.2-6.6 0-9.8 3.7-3.1 3.6-3.1 10.5v31.3q0 1.3-1.2 1.3h-8.3q-0.5 0-0.9-0.4-0.3-0.5-0.3-1v-39.8q0-3.8-0.1-7.3 0-3.5-0.2-5.5-0.2-1.3 1.4-1.3h7.9q1.1 0 0.9 0.8l-0.1 3.6q2.5-2.4 6-4.1 3.5-1.7 8.1-1.7 9.6 0 14.6 5.7 5.1 5.6 5.1 16.3v33.4q0 1.3-1.2 1.3zm44.9-0.8q-1.4 0.9-4.5 1.7-3 0.7-6.5 0.7-4.2 0-6.7-1.7-2.5-1.8-3.7-4.1-1.4-2.6-1.7-6.1-0.3-3.5-0.3-9.5v-25.1h-8.3q-0.5 0-0.9-0.3-0.3-0.4-0.3-0.9v-7.9q0-0.5 0.3-0.8 0.4-0.4 0.9-0.4h8.3v-14q0-0.5 0.4-0.8 0.4-0.4 0.9-0.4h8.1q0.6 0 0.9 0.4 0.4 0.3 0.4 0.8v14h9.6q0.5 0 0.8 0.4 0.4 0.3 0.4 0.8v7.9q0 0.5-0.4 0.9-0.3 0.3-0.8 0.3h-9.6v25.8q0 6.8 0.3 8.6 0.4 1.8 1.9 2.2 1.5 0.4 3.4 0.2 1.3-0.2 2.9-0.5 1.6-0.4 2.8-0.9 0.5-0.2 0.7 0 0.2 0.1 0.4 0.9l0.8 6.6q0.1 0.7-0.5 1.2zm51.3-6.8q-3.6 4.5-8.6 6.9-5 2.3-11.3 2.3-6.4 0-11.3-2.3-4.9-2.3-8.2-6.3-3.3-4-5-9.3-1.6-5.3-1.6-11.3 0-6 1.6-11.3 1.7-5.3 5-9.2 3.3-4 8.1-6.3 4.9-2.3 11.4-2.3 6.4 0 11.3 2.3 4.9 2.3 8.2 6.3 3.3 3.9 4.9 9.2 1.7 5.3 1.7 11.3 0 5.9-1.6 11.1-1.6 5.1-4.6 8.9zm-19.9-39.3q-3.9 0-6.8 1.7-2.8 1.7-4.6 4.5-1.8 2.7-2.7 6.2-0.9 3.4-0.9 6.9 0 3.5 0.9 7 0.9 3.4 2.7 6.2 1.8 2.8 4.6 4.5 2.9 1.7 6.8 1.7 3.9 0 6.7-1.7 2.9-1.7 4.7-4.5 1.8-2.8 2.7-6.2 0.9-3.5 0.9-7 0-3.4-0.9-6.8-0.9-3.5-2.7-6.2-1.8-2.8-4.7-4.5-2.8-1.8-6.7-1.8zm64.9 1.7q-2-0.5-3.5-0.6-1.5-0.2-2.6 0-3 0.6-4.9 2.6-1.8 1.9-2.8 4.5-0.9 2.6-1.2 5.6-0.3 3-0.3 5.7v26q0 1.4-1.2 1.4h-8.3q-1.1 0-1.1-1.5v-40.3q0-3.2-0.1-6.4-0.1-3.2-0.1-5.6 0-0.9 0.3-1.1 0.3-0.3 1-0.3h8.3q0.7 0 0.8 0.2 0.1 0.2 0.1 0.7v4.4q0.7-1.2 1.8-2.4 1.2-1.2 2.5-2.1 1.4-1 2.8-1.5 1.4-0.6 2.6-0.6 1.9 0 3.4 0.1 1.6 0 3.3 1 0.5 0.2 0.6 0.7 0.1 0.4 0.1 0.8v7.5q0 0.4-0.3 0.9-0.3 0.5-1.2 0.3zm14-20.6q-2.9 0-4.9-1.9-1.9-2-1.9-4.8 0-2.9 1.9-4.9 2-2 4.9-2 2.9 0 4.9 2 2 2 2 4.9 0 2.8-2 4.8-2 1.9-4.9 1.9zm4.1 66h-8.4q-0.5 0-0.9-0.3-0.3-0.4-0.3-0.9v-52.7q0-0.5 0.3-0.8 0.4-0.4 0.9-0.4h8.4q0.5 0 0.8 0.4 0.4 0.3 0.4 0.8v52.7q0 0.5-0.4 0.9-0.3 0.3-0.8 0.3zm58.7-0.2h-8.3q-0.5 0-0.9-0.4-0.3-0.5-0.3-1v-31.8q0-7.2-2.3-10.4-2.2-3.2-7-3.2-6.6 0-9.8 3.7-3.1 3.6-3.1 10.5v31.3q0 1.3-1.2 1.3h-8.3q-0.5 0-0.9-0.4-0.3-0.5-0.3-1v-39.8q0-3.8-0.1-7.3 0-3.5-0.2-5.5-0.2-1.3 1.4-1.3h7.9q1.1 0 0.9 0.8l-0.1 3.6q2.5-2.4 6-4.1 3.5-1.7 8.1-1.7 9.6 0 14.6 5.7 5.1 5.6 5.1 16.3v33.4q0 1.3-1.2 1.3zm36.6 15.6q-4 0-7.9-0.5-3.9-0.6-7.7-2-0.9-0.5-1.3-0.8-0.3-0.3-0.3-1l0.5-8.1q0.2-1.9 2-1 3.4 1.7 7.3 2.6 4 0.8 7.5 0.8 6.5 0 10.3-3.4 3.9-3.4 4.2-9.3-2.6 2.8-6.1 4.2-3.5 1.4-6.9 1.4-5 0-9.3-1.9-4.3-2-7.4-5.4-3.1-3.5-4.9-8.3-1.7-4.8-1.7-10.5 0-14.8 5.9-21.9 6-7.1 17.1-7.1 2 0 4 0.5 2.1 0.5 4 1.3 1.9 0.8 3.5 1.9 1.6 1 2.8 2.2l-0.1-3.5q-0.1-0.8 0.1-1.1 0.2-0.3 1.2-0.3h7.9q1.2 0 1.2 1.5v41.3q0 13.5-6.6 21-6.6 7.4-19.3 7.4zm2.5-62.4q-6.3 0-9.7 4.6-3.3 4.6-3.3 14.6 0 3.8 1 6.8 1 3 2.7 5.1 1.8 2 4 3.1 2.3 1.1 4.8 1.1 2.8 0 5.2-1.1 2.4-1.1 4.2-3.2 1.8-2.1 2.8-5.1 1.1-3 1.1-6.9 0-9.1-3.4-14-3.4-5-9.4-5zm82.4 46.8h-8.1q-0.5 0-0.9-0.2-0.3-0.3-0.2-0.8v-4q-2.6 3.2-6.4 4.9-3.7 1.7-7.8 1.7-9.7 0-14.5-5.7-4.8-5.7-4.8-16.3v-33.5q0-0.5 0.3-0.9 0.4-0.5 0.9-0.5h8.2q0.5 0 0.9 0.5 0.4 0.5 0.4 1v31.8q0 7.5 2.4 10.6 2.5 3.1 7.3 3.1 5.4 0 8.9-4.1 3.6-4.1 3.6-12.2v-29.3q0-0.5 0.3-0.9 0.4-0.5 0.9-0.5h8.3q0.5 0 0.8 0.6 0.4 0.5 0.4 1v40.8q0 3.1 0.1 6.1 0.1 3 0.1 5.5 0 1.3-1.1 1.3z"/>
		<path id="arszawskie" class="s0" aria-label="arszawskie"  d="m405.6 257.9h-8.1q-0.7 0-0.9-0.1-0.2-0.2-0.2-0.8v-4.5q-2.5 3.5-6.4 5.3-3.8 1.7-7.7 1.7-4.1 0-7.6-1.1-3.4-1.1-5.9-3.3-2.4-2.2-3.8-5.4-1.4-3.3-1.4-7.6 0-5.1 1.8-8.9 1.8-3.9 5.6-6.4 3.9-2.6 9.9-3.8 6-1.3 14.5-1.3 0-1.9-0.4-3.8-0.4-1.9-1.4-3.4-0.9-1.5-2.6-2.4-1.7-1-4.3-1-4.5 0-8.2 1.2-3.6 1.2-6.8 3.2-1.6 1-2.2 0.9-0.5-0.1-0.5-1.1v-7.6q0-0.4-0.1-0.8 0-0.5 0.2-0.8 0.3-0.4 1.5-1.1 3.4-1.7 6.9-2.8 3.6-1.1 9-1.1 10.1 0 14.9 4.9 4.9 4.9 4.9 15.4v23.7q0 2.8 0 5.9 0.1 3 0.4 5.3 0.2 1.6-1.1 1.6zm-9.9-26.7q-11.1 0-15.9 2.7-4.8 2.7-4.8 8.1 0 3.8 2.2 5.7 2.2 1.9 5.9 1.9 5.7 0 9.1-4.2 3.5-4.2 3.5-13.1zm52.8-18.5q-2-0.5-3.5-0.6-1.5-0.2-2.6 0-3 0.6-4.9 2.6-1.8 1.9-2.8 4.5-0.9 2.6-1.2 5.6-0.3 3-0.3 5.7v26q0 1.4-1.2 1.4h-8.3q-1.1 0-1.1-1.5v-40.3q0-3.2-0.1-6.4-0.1-3.2-0.1-5.6 0-0.9 0.3-1.1 0.3-0.3 1-0.3h8.3q0.7 0 0.8 0.2 0.1 0.2 0.1 0.7v4.4q0.7-1.2 1.8-2.4 1.2-1.2 2.5-2.1 1.4-1 2.8-1.5 1.4-0.6 2.6-0.6 1.9 0 3.4 0.1 1.6 0 3.3 1 0.5 0.2 0.6 0.7 0.1 0.4 0.1 0.8v7.5q0 0.4-0.3 0.9-0.3 0.5-1.2 0.3zm34.1 43.2q-5.4 3.6-12.8 3.6-2 0-4.2-0.2-2.2-0.2-4.3-0.5-2-0.3-3.6-0.7-1.6-0.4-2.5-0.8-0.4-0.2-0.9-0.5-0.4-0.4-0.3-1.2l0.6-6.5q0.1-1 0.3-1.2 0.2-0.2 1.3 0.1 3.3 1 6.8 1.5 3.6 0.4 6.4 0.4 4.4 0 6.5-2.2 2.2-2.2 2.2-5.1 0-1.6-1.1-3.2-1.1-1.7-3.7-3.4-2.7-1.6-5.6-3.2-2.9-1.7-5.7-3.3-3.2-1.9-5.4-5-2.1-3.2-2.1-7 0-4.2 1.5-7.2 1.5-3.1 4-5.1 2.5-2.1 5.7-3 3.3-1 6.9-1 1.9 0 3.9 0.2 2.1 0.2 4 0.6 2 0.3 3.5 0.8 1.6 0.4 2.4 0.9 0.5 0.3 0.5 0.6 0.1 0.2 0 0.7l-0.6 6.4q-0.1 1.1-0.5 1.3-0.4 0.1-1.5-0.1-1.9-0.7-4.3-1.3-1.4-0.2-3-0.4-1.5-0.2-3.8-0.2-4.1 0-5.8 1.9-1.7 1.9-1.7 4.6 0 1.6 1.9 3.4 1.9 1.8 4.8 3.3 3.1 1.5 5.7 3.1 2.7 1.6 4 2.6 3.6 2.6 5.4 5.7 1.8 3 1.8 7.3 0 8.4-6.7 13.3zm54.1 1.8h-39.6q-0.5 0-0.9-0.3-0.3-0.4-0.3-0.9v-7.4q0-0.7 0.5-1.4l27.3-34.9h-25.3q-0.5 0-0.9-0.4-0.3-0.4-0.3-0.9v-7.7q0-0.5 0.3-0.8 0.4-0.4 0.9-0.4h38.1q0.5 0 0.8 0.4 0.4 0.3 0.4 0.8v7.4q0 0.6-0.7 1.6l-27.8 34.7h27.5q1.2 0 1.2 1.3v7.7q0 0.5-0.4 0.9-0.3 0.3-0.8 0.3zm50.5 0.2h-8.1q-0.7 0-0.9-0.1-0.2-0.2-0.2-0.8v-4.5q-2.5 3.5-6.4 5.3-3.8 1.7-7.7 1.7-4.1 0-7.6-1.1-3.4-1.1-5.9-3.3-2.4-2.2-3.8-5.4-1.4-3.3-1.4-7.6 0-5.1 1.8-8.9 1.8-3.9 5.6-6.4 3.9-2.6 9.9-3.8 6-1.3 14.5-1.3 0-1.9-0.4-3.8-0.4-1.9-1.4-3.4-0.9-1.5-2.6-2.4-1.7-1-4.3-1-4.5 0-8.2 1.2-3.6 1.2-6.8 3.2-1.6 1-2.2 0.9-0.5-0.1-0.5-1.1v-7.6q0-0.4-0.1-0.8 0-0.5 0.2-0.8 0.3-0.4 1.5-1.1 3.4-1.7 6.9-2.8 3.6-1.1 9-1.1 10.1 0 14.9 4.9 4.9 4.9 4.9 15.4v23.7q0 2.8 0 5.9 0.1 3 0.4 5.3 0.2 1.6-1.1 1.6zm-9.9-26.7q-11.1 0-15.9 2.7-4.8 2.7-4.8 8.1 0 3.8 2.2 5.7 2.2 1.9 5.9 1.9 5.7 0 9.1-4.2 3.5-4.2 3.5-13.1zm84.5 25.7q-0.2 0.6-0.5 0.8-0.2 0.1-0.7 0.1h-9.3q-0.5 0-0.8-0.1-0.2-0.2-0.5-0.8l-12.4-37.6-12.5 37.6q-0.3 0.6-0.6 0.8-0.3 0.1-0.8 0.1h-9.2q-0.4 0-0.7-0.1-0.3-0.2-0.5-0.8l-17.8-53.1q-0.2-0.5-0.1-0.8 0.2-0.3 1.3-0.3h8.7q0.6 0 0.8 0.2 0.3 0.1 0.5 0.6l12.4 39.1 12.6-39.1q0.2-0.8 1.2-0.8h9.3q1 0 1.2 0.8l12.6 39.1 12.4-39.1q0.2-0.8 1.2-0.8h8.9q1 0 1.2 0.3 0.2 0.3 0 0.8zm50.9-1q-5.4 3.6-12.8 3.6-2 0-4.2-0.2-2.2-0.2-4.3-0.5-2-0.3-3.6-0.7-1.6-0.4-2.5-0.8-0.4-0.2-0.9-0.5-0.4-0.4-0.3-1.2l0.6-6.5q0.1-1 0.3-1.2 0.2-0.2 1.3 0.1 3.3 1 6.8 1.5 3.6 0.4 6.4 0.4 4.4 0 6.5-2.2 2.2-2.2 2.2-5.1 0-1.6-1.1-3.2-1.1-1.7-3.7-3.4-2.7-1.6-5.6-3.2-2.9-1.7-5.7-3.3-3.2-1.9-5.4-5-2.1-3.2-2.1-7 0-4.2 1.5-7.2 1.5-3.1 4-5.1 2.5-2.1 5.7-3 3.3-1 6.9-1 1.9 0 3.9 0.2 2.1 0.2 4 0.6 2 0.3 3.5 0.8 1.6 0.4 2.4 0.9 0.5 0.3 0.5 0.6 0.1 0.2 0 0.7l-0.6 6.4q-0.1 1.1-0.5 1.3-0.4 0.1-1.5-0.1-1.9-0.7-4.3-1.3-1.4-0.2-3-0.4-1.5-0.2-3.8-0.2-4.1 0-5.8 1.9-1.7 1.9-1.7 4.6 0 1.6 1.9 3.4 1.9 1.8 4.8 3.3 3.1 1.5 5.7 3.1 2.7 1.6 4 2.6 3.6 2.6 5.4 5.7 1.8 3 1.8 7.3 0 8.4-6.7 13.3zm59.7 2.2h-9.4q-1.1 0-1.6-0.2-0.4-0.3-0.9-1.1l-16-22.9-4.7 5.4v17.6q0 1.2-1.3 1.2h-8.1q-0.5 0-0.9-0.3-0.3-0.4-0.3-0.9v-78.8q0-0.5 0.3-0.8 0.4-0.4 0.9-0.4h8.1q0.6 0 0.9 0.4 0.4 0.3 0.4 0.8v45.9l19-20.4q0.8-0.9 1.6-0.9h9.9q1.9 0 0.6 1.4l-19.5 21.7 21.7 31q1 1.3-0.7 1.3zm14.6-66q-2.9 0-4.9-1.9-1.9-2-1.9-4.8 0-2.9 1.9-4.9 2-2 4.9-2 2.9 0 4.9 2 2 2 2 4.9 0 2.8-2 4.8-2 1.9-4.9 1.9zm4.1 66h-8.4q-0.5 0-0.9-0.3-0.3-0.4-0.3-0.9v-52.7q0-0.5 0.3-0.8 0.4-0.4 0.9-0.4h8.4q0.5 0 0.8 0.4 0.4 0.3 0.4 0.8v52.7q0 0.5-0.4 0.9-0.3 0.3-0.8 0.3zm57.9-25.3q0 0.8-0.5 1.2-0.4 0.4-0.9 0.4h-32.9q0.5 6.7 4.2 11 3.7 4.2 10.1 4.2 3.3 0 7.5-0.8 4.2-0.9 7.7-3 0.7-0.4 0.9 0.1 0.2 0.5 0.2 1.3v6.9q0 0.9-0.3 1.4-0.3 0.5-1.2 1-3 1.6-7.1 2.3-4 0.7-8.2 0.7-12.4 0-18.8-7.4-6.3-7.5-6.3-21.9 0-5.4 1.4-10.6 1.4-5.2 4.2-9.3 2.9-4.1 7.3-6.6 4.4-2.5 10.4-2.5 6.1 0 10.3 2.3 4.3 2.3 7 6.2 2.7 3.9 3.9 9.1 1.2 5.2 1.2 11.1 0 0.7-0.1 1.6 0 0.9 0 1.3zm-21.9-22q-2.7 0-4.8 1.2-2.1 1.2-3.6 3.1-1.5 1.9-2.5 4.4-0.9 2.5-1.3 5h22.9q0-2-0.7-4.4-0.6-2.4-1.9-4.4-1.3-2.1-3.3-3.5-2-1.4-4.8-1.4z"/>
	</g>
</svg>